<svg xmlns="http://www.w3.org/2000/svg" width="19.796" height="22.122" viewBox="0 0 19.796 22.122">
  <g id="noun_edit_684842" transform="translate(-2.102 -0.939)">
    <g id="Group_46" data-name="Group 46">
      <rect id="Rectangle_161" data-name="Rectangle 161" width="18.631" height="1.164" transform="translate(2.102 21.897)"/>
      <path id="Path_340" data-name="Path 340" d="M21.13,2.94,19.895,1.705a2.623,2.623,0,0,0-3.7,0L5.074,12.82a.582.582,0,0,0-.148.252L3.279,18.836a.584.584,0,0,0,.72.721L9.763,17.91a.576.576,0,0,0,.252-.148L21.13,6.645a2.618,2.618,0,0,0,0-3.7ZM9.3,16.83,4.687,18.147,6,13.536l8.95-8.951,3.294,3.294ZM20.307,5.822,19.072,7.057,15.778,3.763l1.235-1.235a1.459,1.459,0,0,1,2.059,0l1.235,1.235a1.457,1.457,0,0,1,0,2.059Z"/>
    </g>
  </g>
</svg>
